# xmcd
#
# Track frame offsets: 
#        150
#        35731
#        53893
#        76078
#        89517
#        106239
#        121413
#        146301
#        178541
#        201222
#        218484
#
# Disc length: 3146 seconds
#
# Revision: 1
# Processed by: cddbd v1.5.2PL0 Copyright (c) Steve Scherf et al.
# Submitted via: ExactAudioCopy v1.1
#
DISCID=900c480b
DTITLE=Van Morrison - 2003-11-14 Berlin,Tempodrom "Living in the Prese
DTITLE=nt Time"
DYEAR=2003
DGENRE=Blues
TTITLE0=I Like You Like That
TTITLE1=Have I Told You Lately
TTITLE2=Saint James Infirmary
TTITLE3=Precious Time
TTITLE4=Jackie Wilson Said
TTITLE5=Stop Drinking
TTITLE6=It's All Over Now Baby Blue
TTITLE7=Gloria
TTITLE8=You Come Around
TTITLE9=Hey Mr. DJ
TTITLE10=Meet Me In Indian Summer
EXTD=
EXTT0=
EXTT1=
EXTT2=
EXTT3=
EXTT4=
EXTT5=
EXTT6=
EXTT7=
EXTT8=
EXTT9=
EXTT10=
PLAYORDER=
